<svg width="17" height="16" viewBox="0 0 17 16" fill="none" xmlns="http://www.w3.org/2000/svg">
<g clip-path="url(#clip0_10_42)">
<path d="M16.9059 4.70404C16.8685 3.8539 16.731 3.26944 16.5342 2.76299C16.3312 2.22541 16.0188 1.74412 15.6095 1.34401C15.2096 0.937683 14.7254 0.621948 14.1943 0.421957C13.6852 0.22502 13.1041 0.0875415 12.2544 0.0500586C11.3984 0.00940124 11.1266 0 8.95548 0C6.78434 0 6.51258 0.00940124 5.65972 0.0468842C4.81004 0.0843671 4.22588 0.221967 3.71983 0.418783C3.18241 0.621948 2.70137 0.934509 2.30149 1.34401C1.89537 1.74412 1.57993 2.22858 1.37992 2.75994C1.18309 3.26944 1.04569 3.85073 1.00822 4.70087C0.967587 5.55736 0.958191 5.82926 0.958191 8.00156C0.958191 10.1739 0.967587 10.4458 1.00505 11.2991C1.04251 12.1492 1.18004 12.7337 1.37687 13.2401C1.57993 13.7777 1.89537 14.259 2.30149 14.6591C2.70137 15.0654 3.18559 15.3812 3.71666 15.5812C4.22588 15.7781 4.80686 15.9156 5.65667 15.9531C6.50941 15.9907 6.78129 16 8.95243 16C11.1236 16 11.3953 15.9907 12.2482 15.9531C13.0979 15.9156 13.682 15.7781 14.1881 15.5812C15.2628 15.1654 16.1125 14.3153 16.528 13.2401C16.7247 12.7306 16.8622 12.1492 16.8997 11.2991C16.9372 10.4458 16.9465 10.1739 16.9465 8.00156C16.9465 5.82926 16.9434 5.55736 16.9059 4.70404ZM15.4658 11.2366C15.4314 12.018 15.3003 12.4399 15.1909 12.7212C14.9222 13.4183 14.3693 13.9715 13.6726 14.2403C13.3915 14.3497 12.9667 14.481 12.1888 14.5153C11.3453 14.5529 11.0923 14.5622 8.95865 14.5622C6.82498 14.5622 6.56884 14.5529 5.72843 14.5153C4.94744 14.481 4.52571 14.3497 4.24455 14.2403C3.89787 14.1121 3.5823 13.909 3.32616 13.6433C3.06063 13.3838 2.85757 13.0713 2.72944 12.7244C2.6201 12.4431 2.48892 12.018 2.45463 11.2397C2.41705 10.3958 2.40777 10.1426 2.40777 8.00779C2.40777 5.87297 2.41705 5.6167 2.45463 4.77596C2.48892 3.99455 2.6201 3.5726 2.72944 3.29129C2.85757 2.9443 3.06063 2.62869 3.32934 2.37229C3.58853 2.10661 3.90092 1.90345 4.24773 1.77537C4.52888 1.66597 4.95379 1.53472 5.7316 1.50029C6.57506 1.46281 6.82815 1.45341 8.96171 1.45341C11.0986 1.45341 11.3515 1.46281 12.1919 1.50029C12.9729 1.53472 13.3947 1.66597 13.6758 1.77537C14.0225 1.90345 14.3381 2.10661 14.5942 2.37229C14.8597 2.63174 15.0628 2.9443 15.1909 3.29129C15.3003 3.5726 15.4314 3.99761 15.4658 4.77596C15.5033 5.61987 15.5127 5.87297 15.5127 8.00779C15.5127 10.1426 15.5033 10.3927 15.4658 11.2366Z" fill="white"/>
<path d="M8.95547 3.8916C6.68756 3.8916 4.84749 5.73254 4.84749 8.00178C4.84749 10.271 6.68756 12.112 8.95547 12.112C11.2235 12.112 13.0635 10.271 13.0635 8.00178C13.0635 5.73254 11.2235 3.8916 8.95547 3.8916ZM8.95547 10.6679C7.48417 10.6679 6.29072 9.47399 6.29072 8.00178C6.29072 6.52957 7.48417 5.33561 8.95547 5.33561C10.4269 5.33561 11.6202 6.52957 11.6202 8.00178C11.6202 9.47399 10.4269 10.6679 8.95547 10.6679V10.6679Z" fill="white"/>
<path d="M14.185 3.72858C14.185 4.25847 13.7556 4.68812 13.2259 4.68812C12.6963 4.68812 12.2668 4.25847 12.2668 3.72858C12.2668 3.19857 12.6963 2.76904 13.2259 2.76904C13.7556 2.76904 14.185 3.19857 14.185 3.72858V3.72858Z" fill="white"/>
</g>
<defs>
<clipPath id="clip0_10_42">
<rect width="15.9915" height="16" fill="white" transform="translate(0.930084)"/>
</clipPath>
</defs>
</svg>
