<svg width="15" height="14" viewBox="0 0 15 14" fill="none" xmlns="http://www.w3.org/2000/svg">
<path d="M13.5447 0H2.35069C1.5811 0 0.951439 0.63 0.951439 1.4V12.6C0.951439 13.37 1.5811 14 2.35069 14H13.5447C14.3143 14 14.944 13.37 14.944 12.6V1.4C14.944 0.63 14.3143 0 13.5447 0ZM5.1492 11.9H3.05032V5.6H5.1492V11.9ZM4.09976 4.41C3.40013 4.41 2.84043 3.85 2.84043 3.15C2.84043 2.45 3.40013 1.89 4.09976 1.89C4.79938 1.89 5.35909 2.45 5.35909 3.15C5.35909 3.85 4.79938 4.41 4.09976 4.41ZM12.8451 11.9H10.7462V8.19C10.7462 7.63003 10.2565 7.14 9.69677 7.14C9.13707 7.14 8.64733 7.63003 8.64733 8.19V11.9H6.54845V5.6H8.64733V6.44C8.99714 5.88 9.76673 5.46 10.3964 5.46C11.7257 5.46 12.8451 6.58 12.8451 7.91V11.9Z" fill="white"/>
</svg>
