<svg width="21" height="20" viewBox="0 0 21 20" fill="none" xmlns="http://www.w3.org/2000/svg">
<g clip-path="url(#clip0_10_4)">
<path d="M20.9642 3.79875C20.2209 4.125 19.4288 4.34125 18.603 4.44625C19.4525 3.93875 20.101 3.14125 20.4058 2.18C19.6137 2.6525 18.7392 2.98625 17.8072 3.1725C17.0551 2.37125 15.9832 1.875 14.8138 1.875C12.545 1.875 10.7185 3.7175 10.7185 5.97625C10.7185 6.30125 10.7459 6.61375 10.8134 6.91125C7.40648 6.745 4.39184 5.11125 2.36667 2.6225C2.01311 3.23625 1.80572 3.93875 1.80572 4.695C1.80572 6.115 2.53658 7.37375 3.626 8.1025C2.9676 8.09 2.3217 7.89875 1.77449 7.5975C1.77449 7.61 1.77449 7.62625 1.77449 7.6425C1.77449 9.635 3.19498 11.29 5.05773 11.6712C4.72416 11.7625 4.36061 11.8062 3.98331 11.8062C3.72095 11.8062 3.45609 11.7912 3.20747 11.7362C3.73844 13.36 5.24514 14.5537 7.03668 14.5925C5.64242 15.6837 3.87212 16.3412 1.95564 16.3412C1.61957 16.3412 1.29724 16.3262 0.974915 16.285C2.7902 17.4562 4.94155 18.125 7.26156 18.125C14.8025 18.125 18.9253 11.875 18.9253 6.4575C18.9253 6.27625 18.9191 6.10125 18.9103 5.9275C19.7237 5.35 20.407 4.62875 20.9642 3.79875Z" fill="white"/>
</g>
<defs>
<clipPath id="clip0_10_4">
<rect width="19.9893" height="20" fill="white" transform="translate(0.974915)"/>
</clipPath>
</defs>
</svg>
